<?xml version="1.0" encoding="UTF-8"?>
<svg xmlns="http://www.w3.org/2000/svg" xmlns:xlink="http://www.w3.org/1999/xlink" clip-rule="evenodd" stroke-miterlimit="10" viewBox="0 0 756.00 554.00">
    <desc>SVG generated by Lineform</desc>
    <defs/>
    <g>
        <g>
            <path d="M 270.18 404.80 C 280.78 412.12 301.31 400.65 315.70 397.86 C 336.66 393.81 377.39 425.12 388.84 403.01 C 394.62 391.85 386.05 371.46 399.49 363.86 C 411.26 357.21 420.24 345.80 415.41 331.11 C 412.10 321.06 423.68 307.17 413.06 303.30 C 398.81 298.10 395.16 288.00 379.05 284.90 C 344.04 278.17 335.46 280.76 306.49 287.14 C 289.61 290.86 277.85 306.28 261.34 301.99 C 255.96 294.65 237.48 293.81 227.78 292.68 C 210.34 290.64 192.80 290.68 184.50 306.59 C 173.74 327.22 192.93 350.99 209.84 358.74 C 242.54 373.72 259.00 347.88 260.63 344.50 " stroke="#000000" stroke-width="4.18" stroke-linecap="round" stroke-linejoin="round" fill="none"/>
            <path d="M 308.73 400.61 C 299.25 414.28 301.59 418.04 294.66 432.06 C 290.04 441.41 278.23 446.12 269.90 453.07 " stroke="#000000" stroke-width="4.18" stroke-linecap="round" stroke-linejoin="round" fill="none"/>
            <path d="M 386.41 356.82 C 374.90 362.02 371.45 365.21 367.70 371.49 C 361.33 382.18 373.36 407.60 380.04 402.22 C 387.80 395.96 379.96 370.66 393.27 358.14 C 395.50 356.05 392.04 353.97 390.02 356.01 " fill="#000000" stroke="#000000" stroke-width="2.09" stroke-linecap="round" stroke-linejoin="round"/>
            <path d="M 401.77 322.78 C 407.94 326.73 408.69 322.02 410.55 315.78 C 414.53 302.48 391.80 306.67 396.19 316.93 C 397.96 321.07 398.52 330.04 407.54 324.53 " fill="#000000" stroke="#000000" stroke-width="2.19" stroke-linecap="round" stroke-linejoin="round"/>
            <g>
                <path d="M 341.09 297.67 C 334.68 296.49 324.58 289.99 317.34 297.91 C 307.25 308.94 320.73 309.16 327.66 310.81 C 336.93 313.01 350.03 310.15 341.78 298.81 " fill="#000000" stroke="#000000" stroke-width="2.09" stroke-linecap="round" stroke-linejoin="round"/>
                <path d="M 334.81 299.09 C 338.63 296.30 343.40 308.01 338.89 304.46 C 336.25 302.39 329.12 300.57 331.16 298.45 C 331.78 297.81 333.74 298.45 335.03 298.45 " fill="#FFFFFF"/>
            </g>
            <path d="M 286.78 294.94 C 272.57 286.63 254.83 276.83 237.91 281.35 C 232.82 282.71 233.02 288.91 233.20 293.58 " stroke="#000000" stroke-width="4.18" stroke-linecap="round" stroke-linejoin="round" fill="none"/>
            <path d="M 198.33 350.61 C 187.84 352.88 186.26 361.65 175.77 366.67 " stroke="#000000" stroke-width="4.18" stroke-linecap="round" stroke-linejoin="round" fill="none"/>
            <path d="M 374.28 320.52 " stroke="#000000" stroke-width="2.09" stroke-linecap="round" stroke-linejoin="round" fill="none"/>
            <path d="M 368.26 326.10 L 275.47 354.88 " stroke="#000000" stroke-width="2.09" stroke-linecap="round" stroke-linejoin="round" fill="none"/>
            <path d="M 407.68 301.94 L 431.31 278.75 " stroke="#000000" stroke-width="2.09" stroke-linecap="round" stroke-linejoin="round" fill="none"/>
            <path d="M 418.15 307.69 L 467.99 290.08 " stroke="#000000" stroke-width="2.09" stroke-linecap="round" stroke-linejoin="round" fill="none"/>
            <path d="M 419.18 318.16 L 446.24 316.45 " stroke="#000000" stroke-width="2.09" stroke-linecap="round" stroke-linejoin="round" fill="none"/>
            <path d="M 352.70 322.99 L 280.96 325.57 " stroke="#000000" stroke-width="2.09" stroke-linecap="round" stroke-linejoin="round" fill="none"/>
            <path d="M 360.86 337.17 L 317.04 368.96 " stroke="#000000" stroke-width="2.09" stroke-linecap="round" stroke-linejoin="round" fill="none"/>
        </g>
        <g>
            <path d="M 453.70 264.67 C 458.92 268.28 469.02 262.63 476.11 261.26 C 486.43 259.26 506.48 274.68 512.12 263.79 C 514.97 258.30 510.75 248.26 517.36 244.52 C 523.16 241.24 527.58 235.62 525.20 228.39 C 523.58 223.44 529.28 216.60 524.05 214.70 C 517.03 212.14 515.23 207.17 507.30 205.64 C 490.06 202.32 485.84 203.60 471.57 206.74 C 463.26 208.57 457.47 216.16 449.34 214.05 C 446.69 210.44 437.59 210.02 432.82 209.47 C 424.23 208.47 415.60 208.48 411.51 216.32 C 406.21 226.47 415.66 238.18 423.99 241.99 C 440.09 249.37 448.19 236.65 449.00 234.98 " stroke="#000000" stroke-width="2.06" stroke-linecap="round" stroke-linejoin="round" fill="none"/>
            <path d="M 472.68 262.61 C 468.01 269.34 469.16 271.19 465.75 278.10 C 463.47 282.70 457.66 285.02 453.56 288.44 " stroke="#000000" stroke-width="2.06" stroke-linecap="round" stroke-linejoin="round" fill="none"/>
            <path d="M 510.92 241.05 C 505.26 243.61 503.56 245.18 501.71 248.27 C 498.58 253.54 504.50 266.05 507.79 263.40 C 511.61 260.32 507.75 247.87 514.30 241.70 C 515.40 240.67 513.70 239.65 512.70 240.65 " fill="#000000" stroke="#000000" stroke-width="1.03" stroke-linecap="round" stroke-linejoin="round"/>
            <path d="M 518.49 224.29 C 521.52 226.23 521.89 223.91 522.81 220.84 C 524.77 214.29 513.58 216.36 515.74 221.41 C 516.61 223.45 516.89 227.86 521.33 225.15 " fill="#000000" stroke="#000000" stroke-width="1.08" stroke-linecap="round" stroke-linejoin="round"/>
            <g>
                <path d="M 488.61 211.92 C 485.45 211.34 480.48 208.14 476.92 212.04 C 471.95 217.47 478.58 217.58 482.00 218.39 C 486.56 219.48 493.01 218.07 488.95 212.48 " fill="#000000" stroke="#000000" stroke-width="1.03" stroke-linecap="round" stroke-linejoin="round"/>
                <path d="M 485.52 212.63 C 487.40 211.25 489.75 217.01 487.53 215.27 C 486.23 214.25 482.72 213.35 483.72 212.31 C 484.03 211.99 484.99 212.31 485.63 212.31 " fill="#FFFFFF"/>
            </g>
            <path d="M 461.87 210.58 C 454.87 206.49 446.14 201.66 437.81 203.89 C 435.30 204.56 435.40 207.61 435.49 209.91 " stroke="#000000" stroke-width="2.06" stroke-linecap="round" stroke-linejoin="round" fill="none"/>
            <path d="M 418.32 237.99 C 413.15 239.11 412.38 243.43 407.21 245.90 " stroke="#000000" stroke-width="2.06" stroke-linecap="round" stroke-linejoin="round" fill="none"/>
            <path d="M 504.95 223.17 " stroke="#000000" stroke-width="1.03" stroke-linecap="round" stroke-linejoin="round" fill="none"/>
            <path d="M 501.99 225.92 L 456.30 240.10 " stroke="#000000" stroke-width="1.03" stroke-linecap="round" stroke-linejoin="round" fill="none"/>
            <path d="M 521.40 214.03 L 533.03 202.61 " stroke="#000000" stroke-width="1.03" stroke-linecap="round" stroke-linejoin="round" fill="none"/>
            <path d="M 526.56 216.86 L 551.09 208.19 " stroke="#000000" stroke-width="1.03" stroke-linecap="round" stroke-linejoin="round" fill="none"/>
            <path d="M 527.06 222.02 L 540.38 221.17 " stroke="#000000" stroke-width="1.03" stroke-linecap="round" stroke-linejoin="round" fill="none"/>
            <path d="M 494.32 224.39 L 459.00 225.66 " stroke="#000000" stroke-width="1.03" stroke-linecap="round" stroke-linejoin="round" fill="none"/>
            <path d="M 498.34 231.37 L 476.77 247.03 " stroke="#000000" stroke-width="1.03" stroke-linecap="round" stroke-linejoin="round" fill="none"/>
        </g>
        <g>
            <path d="M 561.71 191.37 C 564.04 192.97 568.55 190.45 571.71 189.84 C 576.31 188.95 585.26 195.83 587.77 190.97 C 589.04 188.52 587.16 184.04 590.11 182.38 C 592.70 180.91 594.67 178.41 593.61 175.18 C 592.88 172.97 595.42 169.92 593.09 169.07 C 589.96 167.93 589.16 165.71 585.62 165.03 C 577.93 163.55 576.05 164.12 569.68 165.52 C 565.98 166.34 563.39 169.73 559.77 168.78 C 558.59 167.17 554.53 166.99 552.40 166.74 C 548.57 166.29 544.71 166.30 542.89 169.79 C 540.53 174.33 544.74 179.55 548.46 181.25 C 555.64 184.54 559.25 178.86 559.61 178.12 " stroke="#000000" stroke-width="0.92" stroke-linecap="round" stroke-linejoin="round" fill="none"/>
            <path d="M 570.18 190.45 C 568.09 193.45 568.61 194.27 567.09 197.35 C 566.07 199.41 563.48 200.44 561.65 201.97 " stroke="#000000" stroke-width="0.92" stroke-linecap="round" stroke-linejoin="round" fill="none"/>
            <path d="M 587.24 180.83 C 584.71 181.97 583.95 182.67 583.13 184.05 C 581.73 186.40 584.37 191.98 585.84 190.80 C 587.54 189.43 585.82 183.87 588.74 181.12 C 589.23 180.66 588.47 180.20 588.03 180.65 " fill="#000000" stroke="#000000" stroke-width="0.46" stroke-linecap="round" stroke-linejoin="round"/>
            <path d="M 590.61 173.35 C 591.97 174.22 592.13 173.18 592.54 171.81 C 593.41 168.89 588.42 169.81 589.39 172.07 C 589.78 172.98 589.90 174.95 591.88 173.74 " fill="#000000" stroke="#000000" stroke-width="0.48" stroke-linecap="round" stroke-linejoin="round"/>
            <g>
                <path d="M 577.28 167.84 C 575.88 167.58 573.66 166.15 572.07 167.89 C 569.85 170.31 572.81 170.36 574.33 170.72 C 576.37 171.21 579.25 170.58 577.44 168.09 " fill="#000000" stroke="#000000" stroke-width="0.46" stroke-linecap="round" stroke-linejoin="round"/>
                <path d="M 575.91 168.15 C 576.74 167.54 577.79 170.11 576.80 169.33 C 576.22 168.87 574.66 168.47 575.10 168.01 C 575.24 167.87 575.67 168.01 575.95 168.01 " fill="#FFFFFF"/>
            </g>
            <path d="M 565.35 167.24 C 562.23 165.41 558.34 163.26 554.62 164.25 C 553.50 164.55 553.55 165.91 553.59 166.94 " stroke="#000000" stroke-width="0.92" stroke-linecap="round" stroke-linejoin="round" fill="none"/>
            <path d="M 545.93 179.46 C 543.62 179.96 543.28 181.89 540.97 182.99 " stroke="#000000" stroke-width="0.92" stroke-linecap="round" stroke-linejoin="round" fill="none"/>
            <path d="M 584.57 172.85 " stroke="#000000" stroke-width="0.46" stroke-linecap="round" stroke-linejoin="round" fill="none"/>
            <path d="M 583.25 174.08 L 562.87 180.40 " stroke="#000000" stroke-width="0.46" stroke-linecap="round" stroke-linejoin="round" fill="none"/>
            <path d="M 591.91 168.77 L 597.10 163.68 " stroke="#000000" stroke-width="0.46" stroke-linecap="round" stroke-linejoin="round" fill="none"/>
            <path d="M 594.21 170.04 L 605.16 166.17 " stroke="#000000" stroke-width="0.46" stroke-linecap="round" stroke-linejoin="round" fill="none"/>
            <path d="M 594.44 172.34 L 600.38 171.96 " stroke="#000000" stroke-width="0.46" stroke-linecap="round" stroke-linejoin="round" fill="none"/>
            <path d="M 579.83 173.40 L 564.08 173.96 " stroke="#000000" stroke-width="0.46" stroke-linecap="round" stroke-linejoin="round" fill="none"/>
            <path d="M 581.63 176.51 L 572.00 183.49 " stroke="#000000" stroke-width="0.46" stroke-linecap="round" stroke-linejoin="round" fill="none"/>
        </g>
        <g>
            <path d="M 442.20 178.42 C 443.82 179.54 446.96 177.79 449.17 177.36 C 452.38 176.74 458.61 181.53 460.37 178.15 C 461.25 176.44 459.94 173.32 462.00 172.15 C 463.80 171.13 465.18 169.39 464.44 167.14 C 463.93 165.60 465.70 163.47 464.08 162.88 C 461.89 162.08 461.34 160.54 458.87 160.06 C 453.51 159.03 452.19 159.43 447.76 160.40 C 445.17 160.97 443.37 163.33 440.84 162.68 C 440.02 161.55 437.19 161.42 435.70 161.25 C 433.03 160.94 430.35 160.94 429.08 163.38 C 427.43 166.54 430.37 170.18 432.96 171.37 C 437.96 173.66 440.48 169.70 440.73 169.19 " stroke="#000000" stroke-width="0.64" stroke-linecap="round" stroke-linejoin="round" fill="none"/>
            <path d="M 448.10 177.78 C 446.65 179.87 447.01 180.45 445.95 182.60 C 445.24 184.03 443.43 184.75 442.15 185.81 " stroke="#000000" stroke-width="0.64" stroke-linecap="round" stroke-linejoin="round" fill="none"/>
            <path d="M 460.00 171.07 C 458.23 171.87 457.70 172.36 457.13 173.32 C 456.15 174.96 458.00 178.85 459.02 178.03 C 460.21 177.07 459.01 173.19 461.05 171.28 C 461.39 170.96 460.86 170.64 460.55 170.95 " fill="#000000" stroke="#000000" stroke-width="0.32" stroke-linecap="round" stroke-linejoin="round"/>
            <path d="M 462.35 165.86 C 463.29 166.47 463.41 165.74 463.69 164.79 C 464.30 162.75 460.82 163.39 461.49 164.96 C 461.77 165.60 461.85 166.97 463.23 166.13 " fill="#000000" stroke="#000000" stroke-width="0.34" stroke-linecap="round" stroke-linejoin="round"/>
            <g>
                <path d="M 453.06 162.02 C 452.07 161.83 450.53 160.84 449.42 162.05 C 447.87 163.74 449.94 163.77 451.00 164.03 C 452.42 164.37 454.43 163.93 453.16 162.19 " fill="#000000" stroke="#000000" stroke-width="0.32" stroke-linecap="round" stroke-linejoin="round"/>
                <path d="M 452.09 162.23 C 452.68 161.81 453.41 163.60 452.72 163.06 C 452.31 162.74 451.22 162.46 451.53 162.14 C 451.63 162.04 451.93 162.14 452.13 162.14 " fill="#FFFFFF"/>
            </g>
            <path d="M 444.74 161.60 C 442.56 160.32 439.85 158.82 437.25 159.52 C 436.47 159.73 436.51 160.67 436.53 161.39 " stroke="#000000" stroke-width="0.64" stroke-linecap="round" stroke-linejoin="round" fill="none"/>
            <path d="M 431.19 170.12 C 429.59 170.47 429.35 171.81 427.74 172.58 " stroke="#000000" stroke-width="0.64" stroke-linecap="round" stroke-linejoin="round" fill="none"/>
            <path d="M 458.14 165.51 " stroke="#000000" stroke-width="0.32" stroke-linecap="round" stroke-linejoin="round" fill="none"/>
            <path d="M 457.22 166.37 L 443.01 170.78 " stroke="#000000" stroke-width="0.32" stroke-linecap="round" stroke-linejoin="round" fill="none"/>
            <path d="M 463.25 162.67 L 466.87 159.12 " stroke="#000000" stroke-width="0.32" stroke-linecap="round" stroke-linejoin="round" fill="none"/>
            <path d="M 464.86 163.55 L 472.49 160.85 " stroke="#000000" stroke-width="0.32" stroke-linecap="round" stroke-linejoin="round" fill="none"/>
            <path d="M 465.01 165.15 L 469.16 164.89 " stroke="#000000" stroke-width="0.32" stroke-linecap="round" stroke-linejoin="round" fill="none"/>
            <path d="M 454.83 165.89 L 443.85 166.29 " stroke="#000000" stroke-width="0.32" stroke-linecap="round" stroke-linejoin="round" fill="none"/>
            <path d="M 456.08 168.06 L 449.37 172.93 " stroke="#000000" stroke-width="0.32" stroke-linecap="round" stroke-linejoin="round" fill="none"/>
        </g>
        <g>
            <path d="M 343.53 166.39 C 344.58 167.11 346.60 165.98 348.01 165.70 C 350.07 165.31 354.08 168.39 355.21 166.21 C 355.78 165.11 354.93 163.11 356.26 162.36 C 357.42 161.70 358.30 160.58 357.82 159.14 C 357.50 158.15 358.64 156.78 357.59 156.40 C 356.19 155.89 355.83 154.90 354.25 154.59 C 350.80 153.93 349.96 154.18 347.11 154.81 C 345.45 155.18 344.29 156.69 342.66 156.27 C 342.13 155.55 340.32 155.47 339.36 155.36 C 337.65 155.16 335.92 155.16 335.10 156.72 C 334.04 158.75 335.93 161.09 337.60 161.86 C 340.81 163.33 342.43 160.79 342.59 160.45 " stroke="#000000" stroke-width="0.41" stroke-linecap="round" stroke-linejoin="round" fill="none"/>
            <path d="M 347.33 165.98 C 346.39 167.32 346.62 167.69 345.94 169.07 C 345.49 169.99 344.33 170.45 343.51 171.14 " stroke="#000000" stroke-width="0.41" stroke-linecap="round" stroke-linejoin="round" fill="none"/>
            <path d="M 354.97 161.67 C 353.84 162.18 353.50 162.49 353.13 163.11 C 352.50 164.16 353.69 166.66 354.34 166.13 C 355.11 165.52 354.34 163.03 355.65 161.80 C 355.86 161.59 355.52 161.39 355.33 161.59 " fill="#000000" stroke="#000000" stroke-width="0.21" stroke-linecap="round" stroke-linejoin="round"/>
            <path d="M 356.48 158.32 C 357.09 158.71 357.16 158.24 357.35 157.63 C 357.74 156.32 355.50 156.73 355.93 157.74 C 356.11 158.15 356.16 159.03 357.05 158.49 " fill="#000000" stroke="#000000" stroke-width="0.22" stroke-linecap="round" stroke-linejoin="round"/>
            <g>
                <path d="M 350.51 155.85 C 349.88 155.73 348.89 155.09 348.17 155.87 C 347.18 156.96 348.51 156.98 349.19 157.14 C 350.10 157.36 351.39 157.07 350.58 155.96 " fill="#000000" stroke="#000000" stroke-width="0.21" stroke-linecap="round" stroke-linejoin="round"/>
                <path d="M 349.89 155.99 C 350.27 155.71 350.74 156.86 350.29 156.51 C 350.03 156.31 349.33 156.13 349.53 155.92 C 349.60 155.86 349.79 155.92 349.91 155.92 " fill="#FFFFFF"/>
            </g>
            <path d="M 345.17 155.58 C 343.77 154.76 342.02 153.80 340.36 154.24 C 339.86 154.37 339.88 154.98 339.90 155.44 " stroke="#000000" stroke-width="0.41" stroke-linecap="round" stroke-linejoin="round" fill="none"/>
            <path d="M 336.46 161.06 C 335.43 161.28 335.28 162.14 334.24 162.64 " stroke="#000000" stroke-width="0.41" stroke-linecap="round" stroke-linejoin="round" fill="none"/>
            <path d="M 353.78 158.09 " stroke="#000000" stroke-width="0.21" stroke-linecap="round" stroke-linejoin="round" fill="none"/>
            <path d="M 353.18 158.64 L 344.05 161.48 " stroke="#000000" stroke-width="0.21" stroke-linecap="round" stroke-linejoin="round" fill="none"/>
            <path d="M 357.06 156.27 L 359.39 153.98 " stroke="#000000" stroke-width="0.21" stroke-linecap="round" stroke-linejoin="round" fill="none"/>
            <path d="M 358.09 156.83 L 363.00 155.10 " stroke="#000000" stroke-width="0.21" stroke-linecap="round" stroke-linejoin="round" fill="none"/>
            <path d="M 358.19 157.86 L 360.86 157.69 " stroke="#000000" stroke-width="0.21" stroke-linecap="round" stroke-linejoin="round" fill="none"/>
            <path d="M 351.65 158.34 L 344.59 158.59 " stroke="#000000" stroke-width="0.21" stroke-linecap="round" stroke-linejoin="round" fill="none"/>
            <path d="M 352.46 159.73 L 348.14 162.86 " stroke="#000000" stroke-width="0.21" stroke-linecap="round" stroke-linejoin="round" fill="none"/>
        </g>
        <g>
            <path d="M 330.10 224.63 C 333.36 226.89 339.68 223.35 344.12 222.50 C 350.57 221.25 363.12 230.89 366.64 224.08 C 368.42 220.64 365.78 214.37 369.92 212.03 C 373.55 209.98 376.32 206.46 374.83 201.94 C 373.81 198.84 377.38 194.56 374.10 193.37 C 369.71 191.77 368.59 188.66 363.63 187.70 C 352.85 185.63 350.20 186.43 341.28 188.39 C 336.08 189.54 332.46 194.29 327.37 192.97 C 325.72 190.71 320.02 190.45 317.04 190.10 C 311.66 189.47 306.26 189.48 303.70 194.38 C 300.39 200.74 306.30 208.06 311.51 210.45 C 321.58 215.06 326.65 207.10 327.15 206.06 " stroke="#000000" stroke-width="1.29" stroke-linecap="round" stroke-linejoin="round" fill="none"/>
            <path d="M 341.97 223.34 C 339.05 227.55 339.77 228.71 337.64 233.03 C 336.21 235.91 332.58 237.36 330.01 239.50 " stroke="#000000" stroke-width="1.29" stroke-linecap="round" stroke-linejoin="round" fill="none"/>
            <path d="M 365.90 209.85 C 362.35 211.46 361.29 212.44 360.13 214.37 C 358.17 217.67 361.88 225.50 363.93 223.84 C 366.32 221.91 363.91 214.12 368.01 210.26 C 368.69 209.62 367.63 208.98 367.01 209.61 " fill="#000000" stroke="#000000" stroke-width="0.64" stroke-linecap="round" stroke-linejoin="round"/>
            <path d="M 370.63 199.37 C 372.53 200.59 372.76 199.13 373.33 197.21 C 374.56 193.12 367.56 194.41 368.91 197.57 C 369.45 198.84 369.63 201.61 372.40 199.91 " fill="#000000" stroke="#000000" stroke-width="0.67" stroke-linecap="round" stroke-linejoin="round"/>
            <g>
                <path d="M 351.94 191.64 C 349.96 191.27 346.85 189.27 344.62 191.71 C 341.51 195.11 345.66 195.17 347.80 195.68 C 350.65 196.36 354.69 195.48 352.15 191.99 " fill="#000000" stroke="#000000" stroke-width="0.64" stroke-linecap="round" stroke-linejoin="round"/>
                <path d="M 350.00 192.08 C 351.18 191.22 352.65 194.82 351.26 193.73 C 350.44 193.09 348.25 192.53 348.88 191.88 C 349.07 191.68 349.67 191.88 350.07 191.88 " fill="#FFFFFF"/>
            </g>
            <path d="M 335.21 190.80 C 330.83 188.23 325.37 185.22 320.16 186.61 C 318.59 187.03 318.65 188.94 318.71 190.38 " stroke="#000000" stroke-width="1.29" stroke-linecap="round" stroke-linejoin="round" fill="none"/>
            <path d="M 307.96 207.94 C 304.73 208.64 304.25 211.34 301.02 212.89 " stroke="#000000" stroke-width="1.29" stroke-linecap="round" stroke-linejoin="round" fill="none"/>
            <path d="M 362.16 198.67 " stroke="#000000" stroke-width="0.64" stroke-linecap="round" stroke-linejoin="round" fill="none"/>
            <path d="M 360.31 200.39 L 331.73 209.26 " stroke="#000000" stroke-width="0.64" stroke-linecap="round" stroke-linejoin="round" fill="none"/>
            <path d="M 372.45 192.95 L 379.72 185.81 " stroke="#000000" stroke-width="0.64" stroke-linecap="round" stroke-linejoin="round" fill="none"/>
            <path d="M 375.67 194.72 L 391.02 189.30 " stroke="#000000" stroke-width="0.64" stroke-linecap="round" stroke-linejoin="round" fill="none"/>
            <path d="M 375.99 197.95 L 384.32 197.42 " stroke="#000000" stroke-width="0.64" stroke-linecap="round" stroke-linejoin="round" fill="none"/>
            <path d="M 355.51 199.44 L 333.41 200.23 " stroke="#000000" stroke-width="0.64" stroke-linecap="round" stroke-linejoin="round" fill="none"/>
            <path d="M 358.03 203.80 L 344.53 213.59 " stroke="#000000" stroke-width="0.64" stroke-linecap="round" stroke-linejoin="round" fill="none"/>
        </g>
        <g>
            <path d="M 166.59 276.65 C 171.57 280.09 181.22 274.70 187.99 273.39 C 197.84 271.49 216.98 286.21 222.37 275.81 C 225.08 270.57 221.05 260.98 227.37 257.41 C 232.91 254.28 237.13 248.92 234.86 242.02 C 233.30 237.29 238.75 230.76 233.75 228.94 C 227.05 226.50 225.34 221.75 217.76 220.29 C 201.31 217.13 197.28 218.35 183.66 221.35 C 175.73 223.10 170.20 230.34 162.44 228.33 C 159.91 224.88 151.22 224.48 146.66 223.95 C 138.46 222.99 130.22 223.01 126.32 230.49 C 121.26 240.19 130.28 251.36 138.23 255.00 C 153.60 262.04 161.34 249.90 162.10 248.31 " stroke="#000000" stroke-width="1.97" stroke-linecap="round" stroke-linejoin="round" fill="none"/>
            <path d="M 184.71 274.69 C 180.26 281.11 181.36 282.88 178.10 289.47 C 175.93 293.86 170.38 296.08 166.46 299.35 " stroke="#000000" stroke-width="1.97" stroke-linecap="round" stroke-linejoin="round" fill="none"/>
            <path d="M 221.23 254.10 C 215.82 256.55 214.19 258.04 212.43 261.00 C 209.44 266.02 215.09 277.97 218.23 275.44 C 221.88 272.50 218.19 260.61 224.45 254.72 C 225.50 253.74 223.87 252.76 222.92 253.72 " fill="#000000" stroke="#000000" stroke-width="0.98" stroke-linecap="round" stroke-linejoin="round"/>
            <path d="M 228.45 238.10 C 231.35 239.96 231.70 237.74 232.57 234.81 C 234.44 228.56 223.76 230.53 225.82 235.35 C 226.66 237.29 226.92 241.51 231.16 238.92 " fill="#000000" stroke="#000000" stroke-width="1.03" stroke-linecap="round" stroke-linejoin="round"/>
            <g>
                <path d="M 199.92 226.30 C 196.91 225.74 192.16 222.69 188.76 226.41 C 184.01 231.59 190.35 231.70 193.61 232.47 C 197.97 233.51 204.13 232.16 200.25 226.83 " fill="#000000" stroke="#000000" stroke-width="0.98" stroke-linecap="round" stroke-linejoin="round"/>
                <path d="M 196.97 226.97 C 198.77 225.65 201.01 231.15 198.89 229.49 C 197.65 228.51 194.30 227.66 195.26 226.66 C 195.55 226.36 196.47 226.66 197.07 226.66 " fill="#FFFFFF"/>
            </g>
            <path d="M 174.39 225.01 C 167.71 221.10 159.38 216.50 151.42 218.63 C 149.03 219.27 149.12 222.18 149.21 224.37 " stroke="#000000" stroke-width="1.97" stroke-linecap="round" stroke-linejoin="round" fill="none"/>
            <path d="M 132.82 251.18 C 127.88 252.25 127.15 256.37 122.21 258.73 " stroke="#000000" stroke-width="1.97" stroke-linecap="round" stroke-linejoin="round" fill="none"/>
            <path d="M 215.52 237.04 " stroke="#000000" stroke-width="0.98" stroke-linecap="round" stroke-linejoin="round" fill="none"/>
            <path d="M 212.70 239.66 L 169.08 253.19 " stroke="#000000" stroke-width="0.98" stroke-linecap="round" stroke-linejoin="round" fill="none"/>
            <path d="M 231.23 228.30 L 242.33 217.40 " stroke="#000000" stroke-width="0.98" stroke-linecap="round" stroke-linejoin="round" fill="none"/>
            <path d="M 236.15 231.01 L 259.57 222.73 " stroke="#000000" stroke-width="0.98" stroke-linecap="round" stroke-linejoin="round" fill="none"/>
            <path d="M 236.63 235.93 L 249.35 235.12 " stroke="#000000" stroke-width="0.98" stroke-linecap="round" stroke-linejoin="round" fill="none"/>
            <path d="M 205.38 238.20 L 171.66 239.41 " stroke="#000000" stroke-width="0.98" stroke-linecap="round" stroke-linejoin="round" fill="none"/>
            <path d="M 209.21 244.86 L 188.62 259.81 " stroke="#000000" stroke-width="0.98" stroke-linecap="round" stroke-linejoin="round" fill="none"/>
        </g>
        <g>
            <path d="M 96.85 206.32 C 99.06 207.84 103.33 205.45 106.33 204.87 C 110.69 204.03 119.17 210.55 121.56 205.94 C 122.76 203.62 120.98 199.37 123.78 197.79 C 126.23 196.41 128.10 194.03 127.09 190.97 C 126.40 188.88 128.81 185.99 126.60 185.18 C 123.63 184.10 122.87 182.00 119.52 181.35 C 112.23 179.95 110.44 180.49 104.41 181.82 C 100.90 182.59 98.45 185.80 95.01 184.91 C 93.89 183.38 90.04 183.20 88.02 182.97 C 84.39 182.55 80.74 182.55 79.01 185.87 C 76.77 190.16 80.77 195.11 84.29 196.72 C 91.10 199.84 94.52 194.46 94.86 193.76 " stroke="#000000" stroke-width="0.87" stroke-linecap="round" stroke-linejoin="round" fill="none"/>
            <path d="M 104.88 205.44 C 102.90 208.29 103.39 209.07 101.95 211.99 C 100.99 213.94 98.53 214.92 96.79 216.37 " stroke="#000000" stroke-width="0.87" stroke-linecap="round" stroke-linejoin="round" fill="none"/>
            <path d="M 121.05 196.32 C 118.66 197.41 117.94 198.07 117.16 199.38 C 115.83 201.61 118.33 206.90 119.73 205.78 C 121.34 204.47 119.71 199.21 122.48 196.60 C 122.94 196.16 122.22 195.73 121.80 196.16 " fill="#000000" stroke="#000000" stroke-width="0.44" stroke-linecap="round" stroke-linejoin="round"/>
            <path d="M 124.25 189.24 C 125.53 190.06 125.69 189.08 126.08 187.78 C 126.91 185.01 122.18 185.88 123.09 188.02 C 123.46 188.88 123.57 190.75 125.45 189.60 " fill="#000000" stroke="#000000" stroke-width="0.46" stroke-linecap="round" stroke-linejoin="round"/>
            <g>
                <path d="M 111.62 184.01 C 110.28 183.76 108.18 182.41 106.67 184.06 C 104.57 186.36 107.38 186.40 108.82 186.74 C 110.75 187.20 113.48 186.61 111.76 184.25 " fill="#000000" stroke="#000000" stroke-width="0.44" stroke-linecap="round" stroke-linejoin="round"/>
                <path d="M 110.31 184.31 C 111.10 183.72 112.10 186.16 111.16 185.42 C 110.61 184.99 109.12 184.61 109.55 184.17 C 109.68 184.04 110.09 184.17 110.35 184.17 " fill="#FFFFFF"/>
            </g>
            <path d="M 100.31 183.44 C 97.35 181.71 93.66 179.67 90.13 180.61 C 89.07 180.89 89.11 182.19 89.15 183.16 " stroke="#000000" stroke-width="0.87" stroke-linecap="round" stroke-linejoin="round" fill="none"/>
            <path d="M 81.89 195.03 C 79.71 195.51 79.38 197.33 77.19 198.38 " stroke="#000000" stroke-width="0.87" stroke-linecap="round" stroke-linejoin="round" fill="none"/>
            <path d="M 118.53 188.77 " stroke="#000000" stroke-width="0.44" stroke-linecap="round" stroke-linejoin="round" fill="none"/>
            <path d="M 117.27 189.93 L 97.95 195.92 " stroke="#000000" stroke-width="0.44" stroke-linecap="round" stroke-linejoin="round" fill="none"/>
            <path d="M 125.48 184.90 L 130.40 180.07 " stroke="#000000" stroke-width="0.44" stroke-linecap="round" stroke-linejoin="round" fill="none"/>
            <path d="M 127.66 186.10 L 138.04 182.43 " stroke="#000000" stroke-width="0.44" stroke-linecap="round" stroke-linejoin="round" fill="none"/>
            <path d="M 127.88 188.28 L 133.51 187.92 " stroke="#000000" stroke-width="0.44" stroke-linecap="round" stroke-linejoin="round" fill="none"/>
            <path d="M 114.03 189.28 L 99.10 189.82 " stroke="#000000" stroke-width="0.44" stroke-linecap="round" stroke-linejoin="round" fill="none"/>
            <path d="M 115.73 192.23 L 106.61 198.85 " stroke="#000000" stroke-width="0.44" stroke-linecap="round" stroke-linejoin="round" fill="none"/>
        </g>
        <g>
            <path d="M 236.86 180.07 C 238.40 181.13 241.38 179.46 243.48 179.06 C 246.53 178.47 252.45 183.02 254.12 179.81 C 254.96 178.18 253.71 175.22 255.67 174.11 C 257.38 173.14 258.68 171.48 257.98 169.35 C 257.50 167.88 259.18 165.87 257.64 165.30 C 255.57 164.55 255.04 163.08 252.69 162.63 C 247.60 161.65 246.35 162.02 242.14 162.95 C 239.68 163.49 237.97 165.74 235.57 165.11 C 234.79 164.04 232.10 163.92 230.69 163.76 C 228.15 163.46 225.60 163.47 224.39 165.78 C 222.83 168.78 225.62 172.24 228.08 173.37 C 232.84 175.54 235.23 171.79 235.47 171.29 " stroke="#000000" stroke-width="0.61" stroke-linecap="round" stroke-linejoin="round" fill="none"/>
            <path d="M 242.46 179.46 C 241.08 181.45 241.43 181.99 240.42 184.03 C 239.74 185.39 238.03 186.08 236.81 187.09 " stroke="#000000" stroke-width="0.61" stroke-linecap="round" stroke-linejoin="round" fill="none"/>
            <path d="M 253.76 173.09 C 252.09 173.84 251.59 174.31 251.04 175.22 C 250.11 176.78 251.86 180.47 252.84 179.69 C 253.97 178.78 252.82 175.10 254.76 173.28 C 255.08 172.97 254.58 172.67 254.29 172.97 " fill="#000000" stroke="#000000" stroke-width="0.30" stroke-linecap="round" stroke-linejoin="round"/>
            <path d="M 256.00 168.14 C 256.89 168.71 257.00 168.02 257.28 167.12 C 257.85 165.18 254.55 165.79 255.19 167.28 C 255.44 167.89 255.53 169.19 256.84 168.39 " fill="#000000" stroke="#000000" stroke-width="0.32" stroke-linecap="round" stroke-linejoin="round"/>
            <g>
                <path d="M 247.17 164.48 C 246.24 164.31 244.77 163.37 243.72 164.52 C 242.25 166.12 244.21 166.15 245.22 166.39 C 246.57 166.72 248.47 166.30 247.27 164.65 " fill="#000000" stroke="#000000" stroke-width="0.30" stroke-linecap="round" stroke-linejoin="round"/>
                <path d="M 246.26 164.69 C 246.81 164.28 247.51 165.99 246.85 165.47 C 246.47 165.17 245.43 164.90 245.73 164.60 C 245.82 164.50 246.10 164.60 246.29 164.60 " fill="#FFFFFF"/>
            </g>
            <path d="M 239.27 164.09 C 237.20 162.88 234.62 161.45 232.16 162.11 C 231.42 162.31 231.45 163.21 231.48 163.89 " stroke="#000000" stroke-width="0.61" stroke-linecap="round" stroke-linejoin="round" fill="none"/>
            <path d="M 226.40 172.18 C 224.88 172.51 224.65 173.79 223.12 174.52 " stroke="#000000" stroke-width="0.61" stroke-linecap="round" stroke-linejoin="round" fill="none"/>
            <path d="M 252.00 167.81 " stroke="#000000" stroke-width="0.30" stroke-linecap="round" stroke-linejoin="round" fill="none"/>
            <path d="M 251.12 168.62 L 237.63 172.81 " stroke="#000000" stroke-width="0.30" stroke-linecap="round" stroke-linejoin="round" fill="none"/>
            <path d="M 256.86 165.10 L 260.29 161.73 " stroke="#000000" stroke-width="0.30" stroke-linecap="round" stroke-linejoin="round" fill="none"/>
            <path d="M 258.38 165.94 L 265.63 163.38 " stroke="#000000" stroke-width="0.30" stroke-linecap="round" stroke-linejoin="round" fill="none"/>
            <path d="M 258.53 167.46 L 262.47 167.21 " stroke="#000000" stroke-width="0.30" stroke-linecap="round" stroke-linejoin="round" fill="none"/>
            <path d="M 248.86 168.17 L 238.42 168.54 " stroke="#000000" stroke-width="0.30" stroke-linecap="round" stroke-linejoin="round" fill="none"/>
            <path d="M 250.05 170.23 L 243.67 174.85 " stroke="#000000" stroke-width="0.30" stroke-linecap="round" stroke-linejoin="round" fill="none"/>
        </g>
        <text xml:space="preserve" font-family="Helvetica" font-style="italic" font-weight="bold" font-size="48.00" transform="matrix(2.73478, 0, 0, 2.79584, 0, 0)">
            <tspan x="34.18" y="41.03">RoarVM</tspan>
        </text>
        <text xml:space="preserve" font-family="Helvetica" font-weight="bold" font-size="21.00" transform="matrix(2.73478, 0, 0, 2.79584, 0, 0)">
            <tspan x="38.49" y="188.09">Manycore Squeak</tspan>
        </text>
    </g>
    <g>
        <path d="M 7.37 361.97 Z M 7.37 361.97 " stroke="#000000" stroke-width="0.52" fill="none"/>
    </g>
</svg>