<?xml version="1.0" encoding="utf-8"?>
<!-- Generator: Adobe Illustrator 15.0.1, SVG Export Plug-In . SVG Version: 6.00 Build 0)  -->
<!DOCTYPE svg PUBLIC "-//W3C//DTD SVG 1.1//EN" "http://www.w3.org/Graphics/SVG/1.1/DTD/svg11.dtd">
<svg version="1.1" xmlns="http://www.w3.org/2000/svg" xmlns:xlink="http://www.w3.org/1999/xlink" x="0px" y="0px"
	 width="841.889px" height="595.281px" viewBox="0 0 841.889 595.281" enable-background="new 0 0 841.889 595.281"
	 xml:space="preserve">
<g id="Layer_1">
	<desc>SVG generated by Lineform</desc>
	<g>
		<g>
			
				<path fill="none" stroke="#000000" stroke-width="4.18" stroke-linecap="round" stroke-linejoin="round" stroke-miterlimit="10" d="
				M305.091,434.963c11.39,7.866,33.449-4.459,48.911-7.457c22.522-4.352,66.287,29.292,78.59,5.534
				c6.211-11.991-2.998-33.901,11.443-42.067c12.647-7.146,22.297-19.405,17.106-35.19c-3.557-10.799,8.887-25.724-2.524-29.882
				c-15.312-5.588-19.234-16.44-36.545-19.771c-37.618-7.231-46.838-4.448-77.966,2.407c-18.138,3.997-30.774,20.566-48.515,15.956
				c-5.781-7.887-25.638-8.789-36.061-10.003c-18.739-2.192-37.587-2.149-46.505,14.946c-11.562,22.167,9.058,47.708,27.229,56.036
				c35.136,16.096,52.822-11.67,54.574-15.302"/>
			
				<path fill="none" stroke="#000000" stroke-width="4.18" stroke-linecap="round" stroke-linejoin="round" stroke-miterlimit="10" d="
				M346.513,430.461c-10.187,14.688-7.672,18.729-15.118,33.794c-4.964,10.047-17.654,15.107-26.604,22.575"/>
			<path stroke="#000000" stroke-width="2.09" stroke-linecap="round" stroke-linejoin="round" stroke-miterlimit="10" d="
				M429.982,383.408c-12.368,5.588-16.075,9.016-20.104,15.763c-6.845,11.487,6.082,38.801,13.26,33.021
				c8.338-6.727-0.086-33.912,14.216-47.365c2.396-2.245-1.322-4.48-3.492-2.288"/>
			<path stroke="#000000" stroke-width="2.19" stroke-linecap="round" stroke-linejoin="round" stroke-miterlimit="10" d="
				M446.486,346.832c6.63,4.244,7.436-0.816,9.435-7.521c4.276-14.291-20.147-9.789-15.431,1.235
				c1.902,4.448,2.504,14.087,12.196,8.166"/>
			<g>
				<path stroke="#000000" stroke-width="2.09" stroke-linecap="round" stroke-linejoin="round" stroke-miterlimit="10" d="
					M381.284,319.85c-6.888-1.268-17.74-8.252-25.52,0.258c-10.842,11.853,3.643,12.089,11.089,13.861
					c9.961,2.364,24.037-0.709,15.172-12.894"/>
				<path fill="#FFFFFF" d="M374.536,321.377c4.104-2.998,9.23,9.584,4.384,5.77c-2.836-2.224-10.498-4.18-8.306-6.458
					c0.666-0.688,2.772,0,4.158,0"/>
			</g>
			
				<path fill="none" stroke="#000000" stroke-width="4.18" stroke-linecap="round" stroke-linejoin="round" stroke-miterlimit="10" d="
				M322.928,316.917c-15.27-8.929-34.331-19.459-52.512-14.603c-5.47,1.462-5.254,8.124-5.061,13.142"/>
			
				<path fill="none" stroke="#000000" stroke-width="4.18" stroke-linecap="round" stroke-linejoin="round" stroke-miterlimit="10" d="
				M227.887,376.735c-11.271,2.439-12.97,11.862-24.241,17.257"/>
			
				<path fill="none" stroke="#000000" stroke-width="2.09" stroke-linecap="round" stroke-linejoin="round" stroke-miterlimit="10" d="
				M416.948,344.403"/>
			
				<path fill="none" stroke="#000000" stroke-width="2.09" stroke-linecap="round" stroke-linejoin="round" stroke-miterlimit="10" d="
				M410.479,350.399l-99.704,30.924"/>
			
				<path fill="none" stroke="#000000" stroke-width="2.09" stroke-linecap="round" stroke-linejoin="round" stroke-miterlimit="10" d="
				M452.836,324.439l25.391-24.918"/>
			
				<path fill="none" stroke="#000000" stroke-width="2.09" stroke-linecap="round" stroke-linejoin="round" stroke-miterlimit="10" d="
				M464.086,330.617l53.554-18.922"/>
			
				<path fill="none" stroke="#000000" stroke-width="2.09" stroke-linecap="round" stroke-linejoin="round" stroke-miterlimit="10" d="
				M465.193,341.867l29.077-1.837"/>
			
				<path fill="none" stroke="#000000" stroke-width="2.09" stroke-linecap="round" stroke-linejoin="round" stroke-miterlimit="10" d="
				M393.76,347.057l-77.086,2.772"/>
			
				<path fill="none" stroke="#000000" stroke-width="2.09" stroke-linecap="round" stroke-linejoin="round" stroke-miterlimit="10" d="
				M402.528,362.294l-47.085,34.159"/>
		</g>
		<g display="none">
			
				<path display="inline" fill="none" stroke="#000000" stroke-width="0.92" stroke-linecap="round" stroke-linejoin="round" stroke-miterlimit="10" d="
				M618.343,205.63c2.504,1.719,7.35-0.988,10.745-1.645c4.943-0.956,14.56,6.437,17.257,1.215c1.365-2.633-0.655-7.446,2.515-9.23
				c2.783-1.579,4.899-4.266,3.761-7.736c-0.784-2.375,1.944-5.652-0.559-6.565c-3.363-1.225-4.223-3.61-8.026-4.341
				c-8.264-1.59-10.283-0.978-17.128,0.526c-3.976,0.881-6.759,4.523-10.648,3.503c-1.269-1.729-5.631-1.923-7.919-2.191
				c-4.116-0.484-8.264-0.474-10.219,3.276c-2.536,4.879,1.987,10.487,5.984,12.314c7.716,3.535,11.595-2.568,11.981-3.363"/>
			
				<path display="inline" fill="none" stroke="#000000" stroke-width="0.92" stroke-linecap="round" stroke-linejoin="round" stroke-miterlimit="10" d="
				M627.445,204.641c-2.246,3.224-1.688,4.104-3.32,7.414c-1.096,2.213-3.879,3.32-5.846,4.964"/>
			
				<path display="inline" stroke="#000000" stroke-width="0.46" stroke-linecap="round" stroke-linejoin="round" stroke-miterlimit="10" d="
				M645.776,194.304c-2.719,1.225-3.535,1.977-4.416,3.46c-1.505,2.524,1.332,8.521,2.912,7.253
				c1.826-1.473-0.021-7.446,3.115-10.401c0.527-0.494-0.29-0.988-0.763-0.505"/>
			
				<path display="inline" stroke="#000000" stroke-width="0.48" stroke-linecap="round" stroke-linejoin="round" stroke-miterlimit="10" d="
				M649.397,186.267c1.461,0.935,1.633-0.184,2.074-1.655c0.935-3.138-4.428-2.149-3.385,0.279c0.419,0.978,0.548,3.095,2.675,1.795
				"/>
			<g display="inline">
				<path stroke="#000000" stroke-width="0.46" stroke-linecap="round" stroke-linejoin="round" stroke-miterlimit="10" d="
					M635.073,180.346c-1.504-0.279-3.89-1.816-5.599,0.054c-2.385,2.601,0.796,2.654,2.429,3.041
					c2.192,0.526,5.287-0.15,3.342-2.826"/>
				<path fill="#FFFFFF" d="M633.602,180.679c0.892-0.655,2.02,2.106,0.956,1.268c-0.623-0.494-2.3-0.924-1.827-1.418
					c0.15-0.15,0.613,0,0.914,0"/>
			</g>
			
				<path display="inline" fill="none" stroke="#000000" stroke-width="0.92" stroke-linecap="round" stroke-linejoin="round" stroke-miterlimit="10" d="
				M622.254,179.702c-3.352-1.967-7.532-4.277-11.529-3.213c-1.203,0.322-1.149,1.783-1.106,2.891"/>
			
				<path display="inline" fill="none" stroke="#000000" stroke-width="0.92" stroke-linecap="round" stroke-linejoin="round" stroke-miterlimit="10" d="
				M601.388,192.832c-2.482,0.538-2.848,2.611-5.33,3.793"/>
			
				<path display="inline" fill="none" stroke="#000000" stroke-width="0.46" stroke-linecap="round" stroke-linejoin="round" stroke-miterlimit="10" d="
				M642.906,185.729"/>
			
				<path display="inline" fill="none" stroke="#000000" stroke-width="0.46" stroke-linecap="round" stroke-linejoin="round" stroke-miterlimit="10" d="
				M641.489,187.052l-21.898,6.791"/>
			
				<path display="inline" fill="none" stroke="#000000" stroke-width="0.46" stroke-linecap="round" stroke-linejoin="round" stroke-miterlimit="10" d="
				M650.793,181.345l5.577-5.469"/>
			
				<path display="inline" fill="none" stroke="#000000" stroke-width="0.46" stroke-linecap="round" stroke-linejoin="round" stroke-miterlimit="10" d="
				M653.265,182.711l11.766-4.159"/>
			
				<path display="inline" fill="none" stroke="#000000" stroke-width="0.46" stroke-linecap="round" stroke-linejoin="round" stroke-miterlimit="10" d="
				M653.512,185.181l6.383-0.408"/>
			
				<path display="inline" fill="none" stroke="#000000" stroke-width="0.46" stroke-linecap="round" stroke-linejoin="round" stroke-miterlimit="10" d="
				M637.814,186.321l-16.924,0.602"/>
			
				<path display="inline" fill="none" stroke="#000000" stroke-width="0.46" stroke-linecap="round" stroke-linejoin="round" stroke-miterlimit="10" d="
				M639.747,189.662l-10.348,7.501"/>
		</g>
		<g display="none">
			
				<path display="inline" fill="none" stroke="#000000" stroke-width="0.64" stroke-linecap="round" stroke-linejoin="round" stroke-miterlimit="10" d="
				M489.928,191.715c1.741,1.203,5.115-0.677,7.489-1.139c3.449-0.666,10.144,4.48,12.035,0.849
				c0.945-1.838-0.462-5.189,1.751-6.447c1.935-1.096,3.417-2.966,2.622-5.383c-0.548-1.655,1.354-3.943-0.387-4.578
				c-2.354-0.859-2.944-2.514-5.599-3.029c-5.759-1.107-7.178-0.678-11.938,0.365c-2.783,0.612-4.717,3.148-7.436,2.449
				c-0.881-1.214-3.922-1.354-5.523-1.536c-2.868-0.333-5.748-0.333-7.113,2.289c-1.772,3.395,1.387,7.307,4.17,8.585
				c5.372,2.461,8.08-1.795,8.349-2.343"/>
			
				<path display="inline" fill="none" stroke="#000000" stroke-width="0.64" stroke-linecap="round" stroke-linejoin="round" stroke-miterlimit="10" d="
				M496.268,191.027c-1.558,2.245-1.171,2.869-2.311,5.179c-0.763,1.537-2.707,2.311-4.083,3.449"/>
			
				<path display="inline" stroke="#000000" stroke-width="0.32" stroke-linecap="round" stroke-linejoin="round" stroke-miterlimit="10" d="
				M509.055,183.817c-1.902,0.859-2.472,1.386-3.084,2.418c-1.053,1.762,0.935,5.941,2.03,5.061
				c1.279-1.031-0.011-5.201,2.182-7.253c0.365-0.344-0.204-0.688-0.537-0.354"/>
			
				<path display="inline" stroke="#000000" stroke-width="0.34" stroke-linecap="round" stroke-linejoin="round" stroke-miterlimit="10" d="
				M511.579,178.219c1.011,0.655,1.14-0.129,1.44-1.149c0.655-2.192-3.084-1.504-2.364,0.183c0.301,0.688,0.387,2.16,1.87,1.257"/>
			<g display="inline">
				<path stroke="#000000" stroke-width="0.32" stroke-linecap="round" stroke-linejoin="round" stroke-miterlimit="10" d="
					M501.598,174.093c-1.064-0.204-2.719-1.268-3.911,0.032c-1.666,1.816,0.559,1.849,1.697,2.128
					c1.525,0.365,3.686-0.107,2.321-1.978"/>
				<path fill="#FFFFFF" d="M500.555,174.318c0.635-0.451,1.419,1.473,0.678,0.892c-0.441-0.344-1.612-0.645-1.279-0.988
					c0.107-0.107,0.43,0,0.645,0"/>
			</g>
			
				<path display="inline" fill="none" stroke="#000000" stroke-width="0.64" stroke-linecap="round" stroke-linejoin="round" stroke-miterlimit="10" d="
				M492.657,173.641c-2.343-1.375-5.254-2.987-8.048-2.235c-0.838,0.226-0.795,1.236-0.773,2.01"/>
			
				<path display="inline" fill="none" stroke="#000000" stroke-width="0.64" stroke-linecap="round" stroke-linejoin="round" stroke-miterlimit="10" d="
				M478.098,182.797c-1.719,0.376-1.978,1.815-3.707,2.643"/>
			
				<path display="inline" fill="none" stroke="#000000" stroke-width="0.32" stroke-linecap="round" stroke-linejoin="round" stroke-miterlimit="10" d="
				M507.056,177.843"/>
			
				<path display="inline" fill="none" stroke="#000000" stroke-width="0.32" stroke-linecap="round" stroke-linejoin="round" stroke-miterlimit="10" d="
				M506.068,178.766l-15.269,4.739"/>
			
				<path display="inline" fill="none" stroke="#000000" stroke-width="0.32" stroke-linecap="round" stroke-linejoin="round" stroke-miterlimit="10" d="
				M512.547,174.791l3.89-3.814"/>
			
				<path display="inline" fill="none" stroke="#000000" stroke-width="0.32" stroke-linecap="round" stroke-linejoin="round" stroke-miterlimit="10" d="
				M514.277,175.737l8.198-2.901"/>
			
				<path display="inline" fill="none" stroke="#000000" stroke-width="0.32" stroke-linecap="round" stroke-linejoin="round" stroke-miterlimit="10" d="
				M514.438,177.456l4.459-0.279"/>
			
				<path display="inline" fill="none" stroke="#000000" stroke-width="0.32" stroke-linecap="round" stroke-linejoin="round" stroke-miterlimit="10" d="
				M503.499,178.251l-11.798,0.43"/>
			
				<path display="inline" fill="none" stroke="#000000" stroke-width="0.32" stroke-linecap="round" stroke-linejoin="round" stroke-miterlimit="10" d="
				M504.842,180.583l-7.209,5.232"/>
		</g>
		<g display="none">
			
				<path display="inline" fill="none" stroke="#000000" stroke-width="0.41" stroke-linecap="round" stroke-linejoin="round" stroke-miterlimit="10" d="
				M383.906,178.788c1.128,0.774,3.299-0.44,4.813-0.741c2.214-0.419,6.522,2.891,7.736,0.548c0.613-1.182-0.301-3.331,1.129-4.137
				c1.246-0.709,2.191-1.912,1.676-3.46c-0.344-1.063,0.881-2.535-0.247-2.944c-1.504-0.548-1.891-1.611-3.589-1.944
				c-3.707-0.709-4.609-0.44-7.672,0.236c-1.784,0.397-3.03,2.021-4.781,1.568c-0.57-0.773-2.515-0.859-3.546-0.978
				c-1.838-0.215-3.696-0.215-4.578,1.462c-1.139,2.181,0.893,4.695,2.687,5.522c3.449,1.58,5.189-1.149,5.362-1.515"/>
			
				<path display="inline" fill="none" stroke="#000000" stroke-width="0.41" stroke-linecap="round" stroke-linejoin="round" stroke-miterlimit="10" d="
				M387.99,178.347c-1.01,1.44-0.763,1.838-1.493,3.32c-0.484,0.989-1.73,1.483-2.611,2.225"/>
			
				<path display="inline" stroke="#000000" stroke-width="0.21" stroke-linecap="round" stroke-linejoin="round" stroke-miterlimit="10" d="
				M396.198,173.717c-1.214,0.548-1.579,0.881-1.977,1.547c-0.677,1.129,0.602,3.815,1.3,3.245c0.827-0.655,0-3.331,1.407-4.652
				c0.227-0.226-0.14-0.44-0.344-0.226"/>
			
				<path display="inline" stroke="#000000" stroke-width="0.22" stroke-linecap="round" stroke-linejoin="round" stroke-miterlimit="10" d="
				M397.822,170.117c0.655,0.419,0.73-0.086,0.935-0.741c0.419-1.408-1.988-0.967-1.525,0.118c0.193,0.44,0.247,1.386,1.203,0.806"
				/>
			<g display="inline">
				<path stroke="#000000" stroke-width="0.21" stroke-linecap="round" stroke-linejoin="round" stroke-miterlimit="10" d="
					M391.406,167.463c-0.677-0.129-1.741-0.816-2.515,0.021c-1.063,1.172,0.365,1.193,1.097,1.365
					c0.978,0.236,2.363-0.075,1.493-1.269"/>
				<path fill="#FFFFFF" d="M390.74,167.613c0.408-0.301,0.913,0.936,0.43,0.559c-0.279-0.215-1.031-0.408-0.816-0.634
					c0.075-0.064,0.279,0,0.408,0"/>
			</g>
			
				<path display="inline" fill="none" stroke="#000000" stroke-width="0.41" stroke-linecap="round" stroke-linejoin="round" stroke-miterlimit="10" d="
				M385.668,167.173c-1.504-0.881-3.385-1.912-5.168-1.439c-0.537,0.14-0.516,0.795-0.494,1.289"/>
			
				<path display="inline" fill="none" stroke="#000000" stroke-width="0.41" stroke-linecap="round" stroke-linejoin="round" stroke-miterlimit="10" d="
				M376.31,173.061c-1.107,0.236-1.269,1.16-2.386,1.697"/>
			
				<path display="inline" fill="none" stroke="#000000" stroke-width="0.21" stroke-linecap="round" stroke-linejoin="round" stroke-miterlimit="10" d="
				M394.92,169.87"/>
			
				<path display="inline" fill="none" stroke="#000000" stroke-width="0.21" stroke-linecap="round" stroke-linejoin="round" stroke-miterlimit="10" d="
				M394.276,170.461l-9.811,3.052"/>
			
				<path display="inline" fill="none" stroke="#000000" stroke-width="0.21" stroke-linecap="round" stroke-linejoin="round" stroke-miterlimit="10" d="
				M398.445,167.914l2.504-2.46"/>
			
				<path display="inline" fill="none" stroke="#000000" stroke-width="0.21" stroke-linecap="round" stroke-linejoin="round" stroke-miterlimit="10" d="
				M399.551,168.516l5.276-1.859"/>
			
				<path display="inline" fill="none" stroke="#000000" stroke-width="0.21" stroke-linecap="round" stroke-linejoin="round" stroke-miterlimit="10" d="
				M399.658,169.623l2.869-0.183"/>
			
				<path display="inline" fill="none" stroke="#000000" stroke-width="0.21" stroke-linecap="round" stroke-linejoin="round" stroke-miterlimit="10" d="
				M392.631,170.138l-7.586,0.269"/>
			
				<path display="inline" fill="none" stroke="#000000" stroke-width="0.21" stroke-linecap="round" stroke-linejoin="round" stroke-miterlimit="10" d="
				M393.502,171.632l-4.643,3.363"/>
		</g>
		<g display="none">
			
				<path display="inline" fill="none" stroke="#000000" stroke-width="0.87" stroke-linecap="round" stroke-linejoin="round" stroke-miterlimit="10" d="
				M118.845,221.693c2.375,1.634,6.963-0.935,10.187-1.558c4.686-0.902,13.797,6.104,16.365,1.149
				c1.289-2.492-0.623-7.06,2.386-8.757c2.632-1.483,4.642-4.04,3.557-7.328c-0.742-2.246,1.848-5.352-0.527-6.222
				c-3.19-1.16-4.008-3.417-7.607-4.115c-7.833-1.504-9.756-0.924-16.235,0.505c-3.771,0.827-6.404,4.276-10.101,3.32
				c-1.203-1.644-5.341-1.838-7.511-2.085c-3.9-0.451-7.822-0.451-9.682,3.116c-2.407,4.61,1.892,9.929,5.674,11.659
				c7.317,3.352,10.992-2.429,11.357-3.181"/>
			
				<path display="inline" fill="none" stroke="#000000" stroke-width="0.87" stroke-linecap="round" stroke-linejoin="round" stroke-miterlimit="10" d="
				M127.474,220.748c-2.128,3.062-1.602,3.9-3.148,7.038c-1.031,2.096-3.675,3.148-5.545,4.706"/>
			
				<path display="inline" stroke="#000000" stroke-width="0.44" stroke-linecap="round" stroke-linejoin="round" stroke-miterlimit="10" d="
				M144.849,210.948c-2.568,1.172-3.342,1.881-4.18,3.288c-1.43,2.396,1.257,8.081,2.761,6.877c1.73-1.407-0.021-7.06,2.955-9.863
				c0.494-0.474-0.279-0.936-0.73-0.474"/>
			
				<path display="inline" stroke="#000000" stroke-width="0.46" stroke-linecap="round" stroke-linejoin="round" stroke-miterlimit="10" d="
				M148.287,203.341c1.375,0.882,1.547-0.172,1.966-1.568c0.893-2.977-4.19-2.042-3.213,0.258c0.398,0.924,0.517,2.934,2.536,1.697"
				/>
			<g display="inline">
				<path stroke="#000000" stroke-width="0.44" stroke-linecap="round" stroke-linejoin="round" stroke-miterlimit="10" d="
					M134.716,197.721c-1.439-0.269-3.696-1.72-5.319,0.054c-2.256,2.471,0.764,2.514,2.311,2.88c2.074,0.494,5.008-0.14,3.159-2.676
					"/>
				<path fill="#FFFFFF" d="M133.309,198.044c0.849-0.634,1.923,1.987,0.913,1.192c-0.591-0.462-2.192-0.87-1.73-1.343
					c0.14-0.14,0.58,0,0.86,0"/>
			</g>
			
				<path display="inline" fill="none" stroke="#000000" stroke-width="0.87" stroke-linecap="round" stroke-linejoin="round" stroke-miterlimit="10" d="
				M122.564,197.109c-3.181-1.859-7.146-4.052-10.939-3.041c-1.139,0.301-1.096,1.697-1.053,2.739"/>
			
				<path display="inline" fill="none" stroke="#000000" stroke-width="0.87" stroke-linecap="round" stroke-linejoin="round" stroke-miterlimit="10" d="
				M102.771,209.562c-2.343,0.516-2.697,2.472-5.05,3.6"/>
			
				<path display="inline" fill="none" stroke="#000000" stroke-width="0.44" stroke-linecap="round" stroke-linejoin="round" stroke-miterlimit="10" d="
				M142.141,202.836"/>
			
				<path display="inline" fill="none" stroke="#000000" stroke-width="0.44" stroke-linecap="round" stroke-linejoin="round" stroke-miterlimit="10" d="
				M140.787,204.083l-20.76,6.436"/>
			
				<path display="inline" fill="none" stroke="#000000" stroke-width="0.44" stroke-linecap="round" stroke-linejoin="round" stroke-miterlimit="10" d="
				M149.609,198.677l5.287-5.189"/>
			
				<path display="inline" fill="none" stroke="#000000" stroke-width="0.44" stroke-linecap="round" stroke-linejoin="round" stroke-miterlimit="10" d="
				M151.951,199.967l11.153-3.943"/>
			
				<path display="inline" fill="none" stroke="#000000" stroke-width="0.44" stroke-linecap="round" stroke-linejoin="round" stroke-miterlimit="10" d="
				M152.188,202.309l6.05-0.387"/>
			
				<path display="inline" fill="none" stroke="#000000" stroke-width="0.44" stroke-linecap="round" stroke-linejoin="round" stroke-miterlimit="10" d="
				M137.306,203.384l-16.043,0.58"/>
			
				<path display="inline" fill="none" stroke="#000000" stroke-width="0.44" stroke-linecap="round" stroke-linejoin="round" stroke-miterlimit="10" d="
				M139.132,206.553l-9.8,7.113"/>
		</g>
	</g>
	<g>
		<path fill="none" stroke="#000000" stroke-width="0.52" stroke-miterlimit="10" d="M22.698,388.942"/>
	</g>
</g>
<g id="Layer_7">
	<g>
		
			<path fill="none" stroke="#000000" stroke-width="0.61" stroke-linecap="round" stroke-linejoin="round" stroke-miterlimit="10" d="
			M254.288,198.488c1.654,1.139,4.856-0.656,7.113-1.086c3.277-0.634,9.638,4.255,11.433,0.806c0.902-1.751-0.44-4.932,1.665-6.124
			c1.838-1.043,3.234-2.826,2.482-5.115c-0.516-1.579,1.289-3.739-0.365-4.352c-2.225-0.806-2.794-2.386-5.319-2.869
			c-5.469-1.053-6.812-0.655-11.336,0.344c-2.643,0.581-4.48,2.998-7.06,2.321c-0.838-1.149-3.729-1.278-5.243-1.45
			c-2.729-0.322-5.47-0.312-6.77,2.17c-1.677,3.224,1.321,6.941,3.965,8.156c5.114,2.331,7.683-1.698,7.94-2.235"/>
		
			<path fill="none" stroke="#000000" stroke-width="0.61" stroke-linecap="round" stroke-linejoin="round" stroke-miterlimit="10" d="
			M260.305,197.832c-1.482,2.139-1.106,2.719-2.191,4.911c-0.73,1.461-2.568,2.202-3.879,3.288"/>
		<path stroke="#000000" stroke-width="0.3" stroke-linecap="round" stroke-linejoin="round" stroke-miterlimit="10" d="
			M272.448,190.987c-1.795,0.807-2.332,1.312-2.923,2.289c-0.999,1.677,0.881,5.642,1.934,4.803
			c1.215-0.978-0.021-4.932,2.063-6.888c0.344-0.333-0.193-0.655-0.505-0.333"/>
		<path stroke="#000000" stroke-width="0.32" stroke-linecap="round" stroke-linejoin="round" stroke-miterlimit="10" d="
			M274.854,185.669c0.957,0.612,1.075-0.129,1.376-1.096c0.612-2.085-2.934-1.43-2.246,0.172c0.269,0.655,0.365,2.052,1.773,1.192"
			/>
		<g>
			<path stroke="#000000" stroke-width="0.3" stroke-linecap="round" stroke-linejoin="round" stroke-miterlimit="10" d="
				M265.366,181.736c-0.999-0.183-2.579-1.192-3.707,0.043c-1.58,1.719,0.526,1.751,1.611,2.009
				c1.451,0.355,3.492-0.097,2.203-1.869"/>
			<path fill="#FFFFFF" d="M264.389,181.962c0.591-0.44,1.343,1.396,0.634,0.838c-0.408-0.322-1.526-0.612-1.204-0.935
				c0.097-0.107,0.397,0,0.603,0"/>
		</g>
		
			<path fill="none" stroke="#000000" stroke-width="0.61" stroke-linecap="round" stroke-linejoin="round" stroke-miterlimit="10" d="
			M256.877,181.317c-2.224-1.301-4.996-2.837-7.64-2.128c-0.795,0.215-0.763,1.182-0.73,1.913"/>
		
			<path fill="none" stroke="#000000" stroke-width="0.61" stroke-linecap="round" stroke-linejoin="round" stroke-miterlimit="10" d="
			M243.049,190.01c-1.634,0.354-1.881,1.73-3.524,2.515"/>
		
			<path fill="none" stroke="#000000" stroke-width="0.3" stroke-linecap="round" stroke-linejoin="round" stroke-miterlimit="10" d="
			M270.556,185.314"/>
		
			<path fill="none" stroke="#000000" stroke-width="0.3" stroke-linecap="round" stroke-linejoin="round" stroke-miterlimit="10" d="
			M269.611,186.184l-14.495,4.502"/>
		
			<path fill="none" stroke="#000000" stroke-width="0.3" stroke-linecap="round" stroke-linejoin="round" stroke-miterlimit="10" d="
			M275.779,182.402l3.686-3.621"/>
		
			<path fill="none" stroke="#000000" stroke-width="0.3" stroke-linecap="round" stroke-linejoin="round" stroke-miterlimit="10" d="
			M277.411,183.304l7.79-2.75"/>
		
			<path fill="none" stroke="#000000" stroke-width="0.3" stroke-linecap="round" stroke-linejoin="round" stroke-miterlimit="10" d="
			M277.573,184.938l4.233-0.269"/>
		
			<path fill="none" stroke="#000000" stroke-width="0.3" stroke-linecap="round" stroke-linejoin="round" stroke-miterlimit="10" d="
			M267.182,185.701l-11.218,0.397"/>
		
			<path fill="none" stroke="#000000" stroke-width="0.3" stroke-linecap="round" stroke-linejoin="round" stroke-miterlimit="10" d="
			M268.461,187.915l-6.855,4.964"/>
	</g>
</g>
<g id="Layer_5">
	<g>
		
			<path fill="none" stroke="#000000" stroke-width="2.06" stroke-linecap="round" stroke-linejoin="round" stroke-miterlimit="10" d="
			M413.285,273.391c5.608,3.879,16.461-2.192,24.08-3.664c11.089-2.149,32.633,14.42,38.692,2.719
			c3.062-5.899-1.472-16.688,5.631-20.706c6.232-3.524,10.981-9.563,8.424-17.332c-1.74-5.318,4.385-12.668-1.235-14.71
			c-7.543-2.751-9.478-8.091-17.998-9.735c-18.524-3.567-23.059-2.191-38.393,1.183c-8.929,1.966-15.15,10.121-23.887,7.854
			c-2.847-3.879-12.625-4.33-17.75-4.922c-9.23-1.074-18.504-1.063-22.898,7.36c-5.695,10.907,4.459,23.489,13.41,27.583
			c17.3,7.93,26.003-5.737,26.873-7.532"/>
		
			<path fill="none" stroke="#000000" stroke-width="2.06" stroke-linecap="round" stroke-linejoin="round" stroke-miterlimit="10" d="
			M433.68,271.177c-5.019,7.231-3.783,9.22-7.447,16.645c-2.449,4.943-8.692,7.436-13.098,11.11"/>
		<path stroke="#000000" stroke-width="1.03" stroke-linecap="round" stroke-linejoin="round" stroke-miterlimit="10" d="
			M474.769,248.011c-6.082,2.751-7.908,4.438-9.896,7.758c-3.363,5.663,2.998,19.104,6.533,16.258
			c4.104-3.31-0.043-16.688,6.995-23.317c1.182-1.106-0.645-2.203-1.719-1.128"/>
		<path stroke="#000000" stroke-width="1.08" stroke-linecap="round" stroke-linejoin="round" stroke-miterlimit="10" d="
			M482.903,230.003c3.256,2.084,3.653-0.408,4.643-3.707c2.105-7.038-9.918-4.814-7.598,0.612c0.936,2.192,1.236,6.931,6.007,4.019"
			/>
		<g>
			<path stroke="#000000" stroke-width="1.03" stroke-linecap="round" stroke-linejoin="round" stroke-miterlimit="10" d="
				M450.796,216.711c-3.396-0.623-8.735-4.062-12.561,0.129c-5.341,5.835,1.783,5.953,5.458,6.823
				c4.9,1.171,11.831-0.344,7.468-6.351"/>
			<path fill="#FFFFFF" d="M447.476,217.473c2.021-1.482,4.546,4.707,2.16,2.837c-1.396-1.096-5.168-2.062-4.094-3.181
				c0.333-0.344,1.364,0,2.052,0"/>
		</g>
		
			<path fill="none" stroke="#000000" stroke-width="2.06" stroke-linecap="round" stroke-linejoin="round" stroke-miterlimit="10" d="
			M422.064,215.271c-7.521-4.395-16.901-9.585-25.853-7.188c-2.697,0.72-2.59,3.997-2.493,6.469"/>
		
			<path fill="none" stroke="#000000" stroke-width="2.06" stroke-linecap="round" stroke-linejoin="round" stroke-miterlimit="10" d="
			M375.269,244.723c-5.555,1.203-6.383,5.846-11.938,8.499"/>
		
			<path fill="none" stroke="#000000" stroke-width="1.03" stroke-linecap="round" stroke-linejoin="round" stroke-miterlimit="10" d="
			M468.354,228.8"/>
		
			<path fill="none" stroke="#000000" stroke-width="1.03" stroke-linecap="round" stroke-linejoin="round" stroke-miterlimit="10" d="
			M465.173,231.754l-49.094,15.237"/>
		
			<path fill="none" stroke="#000000" stroke-width="1.03" stroke-linecap="round" stroke-linejoin="round" stroke-miterlimit="10" d="
			M486.03,218.978l12.497-12.271"/>
		
			<path fill="none" stroke="#000000" stroke-width="1.03" stroke-linecap="round" stroke-linejoin="round" stroke-miterlimit="10" d="
			M491.574,222.019l26.357-9.316"/>
		
			<path fill="none" stroke="#000000" stroke-width="1.03" stroke-linecap="round" stroke-linejoin="round" stroke-miterlimit="10" d="
			M492.112,227.563l14.312-0.913"/>
		
			<path fill="none" stroke="#000000" stroke-width="1.03" stroke-linecap="round" stroke-linejoin="round" stroke-miterlimit="10" d="
			M456.932,230.11l-37.952,1.364"/>
		
			<path fill="none" stroke="#000000" stroke-width="1.03" stroke-linecap="round" stroke-linejoin="round" stroke-miterlimit="10" d="
			M461.251,237.61l-23.177,16.827"/>
	</g>
</g>
<g id="Layer_6">
	<g>
		
			<path fill="none" stroke="#000000" stroke-width="1.29" stroke-linecap="round" stroke-linejoin="round" stroke-miterlimit="10" d="
			M331.476,213.368c3.503,2.429,10.294-1.375,15.064-2.289c6.931-1.343,20.416,9.016,24.198,1.698
			c1.912-3.696-0.924-10.434,3.524-12.948c3.9-2.202,6.877-5.984,5.275-10.842c-1.096-3.331,2.74-7.93-0.784-9.208
			c-4.717-1.72-5.921-5.062-11.25-6.093c-11.583-2.225-14.431-1.365-24.016,0.741c-5.587,1.235-9.478,6.34-14.946,4.921
			c-1.773-2.428-7.897-2.707-11.1-3.083c-5.781-0.678-11.583-0.667-14.334,4.599c-3.557,6.834,2.794,14.699,8.392,17.268
			c10.82,4.953,16.269-3.6,16.806-4.718"/>
		
			<path fill="none" stroke="#000000" stroke-width="1.29" stroke-linecap="round" stroke-linejoin="round" stroke-miterlimit="10" d="
			M344.23,211.982c-3.138,4.523-2.363,5.77-4.652,10.412c-1.536,3.094-5.437,4.652-8.198,6.951"/>
		<path stroke="#000000" stroke-width="0.64" stroke-linecap="round" stroke-linejoin="round" stroke-miterlimit="10" d="
			M369.944,197.487c-3.814,1.729-4.954,2.782-6.2,4.856c-2.106,3.546,1.88,11.959,4.083,10.176
			c2.568-2.074-0.021-10.444,4.384-14.592c0.73-0.688-0.408-1.376-1.074-0.699"/>
		<path stroke="#000000" stroke-width="0.67" stroke-linecap="round" stroke-linejoin="round" stroke-miterlimit="10" d="
			M375.026,186.225c2.042,1.312,2.289-0.258,2.901-2.32c1.321-4.396-6.2-3.009-4.75,0.387c0.581,1.364,0.774,4.341,3.751,2.515"/>
		<g>
			<path stroke="#000000" stroke-width="0.64" stroke-linecap="round" stroke-linejoin="round" stroke-miterlimit="10" d="
				M354.943,177.92c-2.127-0.397-5.469-2.547-7.865,0.075c-3.342,3.653,1.117,3.718,3.417,4.266c3.062,0.73,7.403-0.215,4.674-3.965
				"/>
			<path fill="#FFFFFF" d="M352.859,178.392c1.268-0.924,2.848,2.944,1.354,1.773c-0.881-0.688-3.234-1.29-2.558-1.988
				c0.205-0.215,0.85,0,1.279,0"/>
		</g>
		
			<path fill="none" stroke="#000000" stroke-width="1.29" stroke-linecap="round" stroke-linejoin="round" stroke-miterlimit="10" d="
			M336.966,177.017c-4.706-2.762-10.573-5.996-16.171-4.502c-1.688,0.451-1.623,2.503-1.559,4.051"/>
		
			<path fill="none" stroke="#000000" stroke-width="1.29" stroke-linecap="round" stroke-linejoin="round" stroke-miterlimit="10" d="
			M307.686,195.434c-3.471,0.752-3.986,3.653-7.457,5.318"/>
		
			<path fill="none" stroke="#000000" stroke-width="0.64" stroke-linecap="round" stroke-linejoin="round" stroke-miterlimit="10" d="
			M365.924,185.473"/>
		
			<path fill="none" stroke="#000000" stroke-width="0.64" stroke-linecap="round" stroke-linejoin="round" stroke-miterlimit="10" d="
			M363.937,187.322l-30.71,9.53"/>
		
			<path fill="none" stroke="#000000" stroke-width="0.64" stroke-linecap="round" stroke-linejoin="round" stroke-miterlimit="10" d="
			M376.982,179.327l7.812-7.672"/>
		
			<path fill="none" stroke="#000000" stroke-width="0.64" stroke-linecap="round" stroke-linejoin="round" stroke-miterlimit="10" d="
			M380.442,181.229l16.493-5.824"/>
		
			<path fill="none" stroke="#000000" stroke-width="0.64" stroke-linecap="round" stroke-linejoin="round" stroke-miterlimit="10" d="
			M380.785,184.7l8.95-0.569"/>
		
			<path fill="none" stroke="#000000" stroke-width="0.64" stroke-linecap="round" stroke-linejoin="round" stroke-miterlimit="10" d="
			M358.779,186.301l-23.746,0.85"/>
		
			<path fill="none" stroke="#000000" stroke-width="0.64" stroke-linecap="round" stroke-linejoin="round" stroke-miterlimit="10" d="
			M361.487,190.986l-14.506,10.52"/>
	</g>
</g>
<g id="Layer_4">
	<g>
		
			<path fill="none" stroke="#000000" stroke-width="1.97" stroke-linecap="round" stroke-linejoin="round" stroke-miterlimit="10" d="
			M248.782,284.264c5.351,3.696,15.72-2.096,22.994-3.503c10.584-2.042,31.15,13.775,36.941,2.6
			c2.912-5.63-1.418-15.935,5.373-19.771c5.952-3.363,10.487-9.123,8.048-16.537c-1.676-5.082,4.18-12.099-1.192-14.055
			c-7.199-2.621-9.037-7.726-17.182-9.294c-17.676-3.396-22.006-2.085-36.641,1.139c-8.521,1.881-14.463,9.66-22.802,7.5
			c-2.718-3.707-12.056-4.137-16.955-4.706c-8.812-1.032-17.665-1.011-21.856,7.027c-5.437,10.423,4.256,22.425,12.798,26.336
			c16.516,7.564,24.832-5.479,25.648-7.188"/>
		
			<path fill="none" stroke="#000000" stroke-width="1.97" stroke-linecap="round" stroke-linejoin="round" stroke-miterlimit="10" d="
			M268.252,282.158c-4.781,6.898-3.6,8.801-7.103,15.882c-2.332,4.717-8.295,7.103-12.508,10.616"/>
		<path stroke="#000000" stroke-width="0.98" stroke-linecap="round" stroke-linejoin="round" stroke-miterlimit="10" d="
			M307.493,260.034c-5.813,2.633-7.564,4.233-9.456,7.414c-3.213,5.394,2.858,18.234,6.232,15.516
			c3.922-3.159-0.043-15.935,6.684-22.264c1.128-1.053-0.623-2.106-1.645-1.074"/>
		<path stroke="#000000" stroke-width="1.03" stroke-linecap="round" stroke-linejoin="round" stroke-miterlimit="10" d="
			M315.251,242.842c3.116,1.999,3.492-0.387,4.427-3.535c2.01-6.716-9.466-4.599-7.253,0.58c0.903,2.085,1.183,6.619,5.738,3.836"/>
		<g>
			<path stroke="#000000" stroke-width="0.98" stroke-linecap="round" stroke-linejoin="round" stroke-miterlimit="10" d="
				M284.596,230.162c-3.234-0.602-8.339-3.879-11.992,0.119c-5.104,5.565,1.709,5.684,5.212,6.511
				c4.685,1.118,11.304-0.333,7.135-6.06"/>
			<path fill="#FFFFFF" d="M281.426,230.883c1.934-1.419,4.341,4.491,2.062,2.707c-1.332-1.053-4.932-1.966-3.9-3.04
				c0.312-0.323,1.301,0,1.945,0"/>
		</g>
		
			<path fill="none" stroke="#000000" stroke-width="1.97" stroke-linecap="round" stroke-linejoin="round" stroke-miterlimit="10" d="
			M257.163,228.776c-7.178-4.201-16.129-9.144-24.682-6.855c-2.568,0.688-2.472,3.814-2.375,6.168"/>
		
			<path fill="none" stroke="#000000" stroke-width="1.97" stroke-linecap="round" stroke-linejoin="round" stroke-miterlimit="10" d="
			M212.495,256.896c-5.308,1.149-6.092,5.577-11.4,8.112"/>
		
			<path fill="none" stroke="#000000" stroke-width="0.98" stroke-linecap="round" stroke-linejoin="round" stroke-miterlimit="10" d="
			M301.358,241.703"/>
		
			<path fill="none" stroke="#000000" stroke-width="0.98" stroke-linecap="round" stroke-linejoin="round" stroke-miterlimit="10" d="
			M298.327,244.518l-46.87,14.538"/>
		
			<path fill="none" stroke="#000000" stroke-width="0.98" stroke-linecap="round" stroke-linejoin="round" stroke-miterlimit="10" d="
			M318.239,232.311l11.927-11.712"/>
		
			<path fill="none" stroke="#000000" stroke-width="0.98" stroke-linecap="round" stroke-linejoin="round" stroke-miterlimit="10" d="
			M323.525,235.223l25.166-8.897"/>
		
			<path fill="none" stroke="#000000" stroke-width="0.98" stroke-linecap="round" stroke-linejoin="round" stroke-miterlimit="10" d="
			M324.041,240.51l13.667-0.87"/>
		
			<path fill="none" stroke="#000000" stroke-width="0.98" stroke-linecap="round" stroke-linejoin="round" stroke-miterlimit="10" d="
			M290.462,242.949l-36.232,1.3"/>
		
			<path fill="none" stroke="#000000" stroke-width="0.98" stroke-linecap="round" stroke-linejoin="round" stroke-miterlimit="10" d="
			M294.577,250.105l-22.124,16.064"/>
	</g>
</g>
<g id="Layer_3" display="none">
	
		<text transform="matrix(0.9782 0 0 1 14.7795 -2.441406e-04)" display="inline" font-family="'Helvetica-Bold'" font-size="63.0875">             </text>
	<text transform="matrix(0.9782 0 0 1 127.8831 565.0544)" display="inline" font-family="'Helvetica-Bold'" font-size="63.0875">Manycore Squeak</text>
	<text transform="matrix(0.9782 0 0 1 652.6272 565.0544)" display="inline" font-family="'Helvetica-Bold'" font-size="63.0875">         </text>
	
		<text transform="matrix(0.9782 0 0 1 14.7795 -2.441406e-04)" display="inline" font-family="'Helvetica-BoldOblique'" font-size="144.2">             </text>
	
		<text transform="matrix(0.9782 0 0 1 115.219 123.2615)" display="inline" font-family="'Helvetica-BoldOblique'" font-size="144.2">RoarVM</text>
	
		<text transform="matrix(0.9782 0 0 1 648.1526 123.2615)" display="inline" font-family="'Helvetica-BoldOblique'" font-size="144.2">         </text>
</g>
<g id="Layer_2">
	<rect x="198.227" y="168.923" fill="none" stroke="#000000" stroke-miterlimit="10" width="322.981" height="322.981"/>
</g>
</svg>
